<svg width="86" height="86" viewBox="0 0 86 86" fill="none" xmlns="http://www.w3.org/2000/svg">
<path d="M25.8 63.0667C32.1329 63.0667 37.2667 57.9329 37.2667 51.6C37.2667 45.2671 32.1329 40.1333 25.8 40.1333C19.4672 40.1333 14.3334 45.2671 14.3334 51.6C14.3334 57.9329 19.4672 63.0667 25.8 63.0667Z" fill="#CA7358"/>
<path d="M53.0334 71.6667C56.9914 71.6667 60.2 68.458 60.2 64.5C60.2 60.542 56.9914 57.3333 53.0334 57.3333C49.0753 57.3333 45.8667 60.542 45.8667 64.5C45.8667 68.458 49.0753 71.6667 53.0334 71.6667Z" fill="#CA7358"/>
<path d="M54.4666 48.7333C63.9659 48.7333 71.6666 41.0326 71.6666 31.5333C71.6666 22.034 63.9659 14.3333 54.4666 14.3333C44.9673 14.3333 37.2666 22.034 37.2666 31.5333C37.2666 41.0326 44.9673 48.7333 54.4666 48.7333Z" fill="#CA7358"/>
</svg>
